<?xml version="1.0" encoding="UTF-8"?>
<!DOCTYPE svg PUBLIC "-//W3C//DTD SVG 1.1//EN" "http://www.w3.org/Graphics/SVG/1.1/DTD/svg11.dtd">
<!-- Creator: CorelDRAW 2020 (64-Bit) -->
<svg xmlns="http://www.w3.org/2000/svg" xml:space="preserve" width="3.41666in" height="2.76666in" version="1.1" style="shape-rendering:geometricPrecision; text-rendering:geometricPrecision; image-rendering:optimizeQuality; fill-rule:evenodd; clip-rule:evenodd"
viewBox="0 0 3416.66 2766.66"
 xmlns:xlink="http://www.w3.org/1999/xlink"
 xmlns:xodm="http://www.corel.com/coreldraw/odm/2003">
 <defs>
  <style type="text/css">
   <![CDATA[
    .str3 {stroke:#333333;stroke-width:10.42;stroke-miterlimit:2.61313}
    .str0 {stroke:black;stroke-width:20.83;stroke-miterlimit:2.61313}
    .str2 {stroke:#333333;stroke-width:12.5;stroke-linecap:round;stroke-linejoin:round;stroke-miterlimit:2.61313}
    .str1 {stroke:#333333;stroke-width:20.83;stroke-linecap:round;stroke-linejoin:round;stroke-miterlimit:2.61313}
    .fil11 {fill:none}
    .fil4 {fill:none;fill-rule:nonzero}
    .fil0 {fill:#F22539;fill-rule:nonzero}
    .fil1 {fill:#C4C4C4;fill-opacity:0.000000}
    .fil5 {fill:#333333;fill-rule:nonzero}
    .fil7 {fill:#6C4C59;fill-rule:nonzero}
    .fil10 {fill:#B94966;fill-rule:nonzero}
    .fil3 {fill:#ECA539;fill-rule:nonzero}
    .fil9 {fill:#F22539;fill-rule:nonzero}
    .fil8 {fill:#F26981;fill-rule:nonzero}
    .fil2 {fill:#F8CC46;fill-rule:nonzero}
    .fil6 {fill:white;fill-rule:nonzero}
   ]]>
  </style>
    <clipPath id="id0">
     <path d="M2474.46 2116.92l465.52 538.49 480.39 0 0 -2667.12 -3415.37 0 0 2357.28 694.96 0c196.69,227.3 487.28,371.1 811.45,371.1 422.69,0 788.27,-244.48 963.06,-599.75z"/>
    </clipPath>
    <clipPath id="id1">
     <path d="M2474.46 2116.92l465.52 538.49 480.39 0 0 -2667.12 -3415.37 0 0 2357.28 694.96 0c196.69,227.3 487.28,371.1 811.45,371.1 422.69,0 788.27,-244.48 963.06,-599.75z"/>
    </clipPath>
 </defs>
 <g id="Capa_x0020_1">
  <metadata id="CorelCorpID_0Corel-Layer"/>
  <g id="_2968958597680">
   <circle id="Ellipse_x0020_10.svg" class="fil0 str0" cx="1511.01" cy="1639.15" r="1083.33"/>
   <g style="clip-path:url(#id0)">
    <polygon id="Mask_x0020_Group.svg" class="fil1" points="5,-11.72 3420.37,-11.72 3420.37,2716.67 5,2716.67 "/>
   </g>
   <g style="clip-path:url(#id1)">
    <g>
     <path id="1" class="fil2" d="M2193.99 1296.89c0,0 301.47,48.48 527.96,121.41 226.48,72.87 424.06,196.66 424.06,196.66 0,0 -18.16,409.17 -156.73,669.69 -162.57,-109.15 -564.09,-328.02 -757.15,-396.13 49.67,100.69 127.32,299.3 168.74,481.72 -99.02,-1.59 -231.63,23.3 -231.63,23.3l-184.48 -627.11 209.23 -469.54z"/>
     <path class="fil3" d="M2669.33 1796.18c155.11,177.15 272.58,372.6 328.27,472.22 -2.74,5.5 -5.49,10.93 -8.37,16.3 -162.57,-109.15 -564.09,-328.02 -757.14,-396.13 49.67,100.69 127.31,299.29 168.73,481.73 -99.02,-1.61 -231.63,23.29 -231.63,23.29l-184.48 -627.11 185.57 -416.43c62.41,45.1 308.73,228.73 499.05,446.11z"/>
     <path class="fil4 str1" d="M2193.99 1296.89c0,0 301.47,48.48 527.96,121.41 226.48,72.87 424.06,196.66 424.06,196.66 0,0 -18.16,409.17 -156.73,669.69 -162.57,-109.15 -564.09,-328.02 -757.15,-396.13 49.67,100.69 127.32,299.3 168.74,481.72 -99.02,-1.59 -231.63,23.3 -231.63,23.3l-184.48 -627.11 209.23 -469.54z"/>
     <path class="fil2 str2" d="M2114.37 1881.39c0,0 -4.71,145.79 15.65,264.29 20.35,118.5 51.75,236.68 131.48,363.01 79.74,126.26 126.3,185.45 128.76,264.47 36.52,-30.09 81.03,-54.13 97.36,-39.25 16.32,14.87 9.19,33.75 9.19,33.75 0,0 18.43,-13.42 27.73,-2.8 9.31,10.63 13.16,32.5 5.68,56.37 12.97,-2.09 18.81,15.42 5.58,55.58 -13.23,40.17 -59.47,153.81 -178.42,273.9 -118.94,120.09 -229.86,204.77 -297.83,167.87 -23.63,-13.34 -21.87,-45.69 -21.87,-45.69 0,0 -13.34,6.29 -57.83,-1.58 -44.49,-7.87 -256.86,-71.59 -395.77,-76.57 -138.92,-4.99 -328.32,-4.11 -528.41,62.26 1.61,23.75 -9.2,80.19 -100.49,41.48 -91.29,-38.71 -209.39,-116 -312.74,-250.92 -103.34,-134.93 -125.43,-223.52 -110.71,-232.47 7.31,-5.29 19.82,0.52 19.82,0.52 0,0 -23.59,-58.33 -7.65,-68.19 15.95,-9.86 37.61,13.52 37.61,13.52 0,0 -3.21,-19.5 8.65,-24.78 11.86,-5.29 30.35,-1.01 63.15,21.72 -0.95,-38.28 -0.13,-87.11 51.61,-154.61 51.74,-67.49 92.03,-87 135.11,-95.76 17.81,-63.42 28.15,-97.54 33.63,-135.48 0,0 -96.57,-50.59 -216.81,-206.07 -120.24,-155.49 -194.9,-291.65 -224.31,-370.46 -29.35,-78.82 -47.26,-128.47 -55.82,-136.93 -8.57,-8.51 -19.41,-23.94 -17.92,-30.69 1.5,-6.76 21.2,-2.13 22.7,-8.89 1.5,-6.75 -13.24,-33.34 -8.59,-41.54 4.65,-8.2 28.67,-4.53 30.55,-7.5 1.88,-2.96 -6.69,-28.52 -1.87,-35.01 4.81,-6.56 30.52,-2.54 35.44,-7.99 4.93,-5.45 -8.81,-33.27 -1.31,-40.62 7.5,-7.37 63.99,8.43 69.25,5.72 5.2,-2.71 8.02,-34.96 16.65,-36.35 8.62,-1.39 181.81,76.37 275.74,125.57 93.93,49.21 1317.01,300.11 1317.01,300.11z"/>
     <path class="fil3" d="M668.22 2906.72c56.79,-37.61 193.54,79.61 246.5,120.52 52.95,40.92 44.41,20.83 220.83,-37.61 176.49,-58.5 419.28,-3.65 579.4,59.5 160.13,63.16 356.66,105.61 356.66,105.61 0,0 42.07,-62.03 96.36,-123.1 54.3,-61.08 176.57,-155.95 241.91,-106.64 46.85,35.31 13.29,128.85 -9.53,179.11 -13.15,15.32 -27.47,30.97 -43.03,46.67 -118.94,120.16 -229.85,204.76 -297.83,167.88 -23.61,-13.35 -21.87,-45.69 -21.87,-45.69 0,0 -13.33,6.29 -57.82,-1.58 -44.49,-7.88 -256.87,-71.59 -395.78,-76.58 -138.92,-4.98 -328.31,-4.1 -528.4,62.26 1.59,23.75 -9.21,80.19 -100.5,41.48 -78.9,-33.48 -177.91,-95.85 -270.11,-199.33 -51.26,-98.08 -67.71,-158.78 -16.79,-192.5z"/>
     <path class="fil3" d="M886.13 2284.97c0,0 -124.44,-21.7 -265.32,-166.78 64.16,82.85 145.79,192.61 246.27,250.01 8.75,-34.91 19.05,-83.23 19.05,-83.23z"/>
     <path class="fil4 str1" d="M2114.37 1881.39c0,0 -4.71,145.79 15.65,264.29 20.35,118.5 51.75,236.68 131.48,363.01 79.74,126.26 126.3,185.45 128.76,264.47 36.52,-30.09 81.03,-54.13 97.36,-39.25 16.32,14.87 9.19,33.75 9.19,33.75 0,0 18.43,-13.42 27.73,-2.8 9.31,10.63 13.16,32.5 5.68,56.37 12.97,-2.09 18.81,15.42 5.58,55.58 -13.23,40.17 -59.47,153.81 -178.42,273.9 -118.94,120.09 -229.86,204.77 -297.83,167.87 -23.63,-13.34 -21.87,-45.69 -21.87,-45.69 0,0 -13.34,6.29 -57.83,-1.58 -44.49,-7.87 -256.86,-71.59 -395.77,-76.57 -138.92,-4.99 -328.32,-4.11 -528.41,62.26 1.61,23.75 -9.2,80.19 -100.49,41.48 -91.29,-38.71 -209.39,-116 -312.74,-250.92 -103.34,-134.93 -125.43,-223.52 -110.71,-232.47 7.31,-5.29 19.82,0.52 19.82,0.52 0,0 -23.59,-58.33 -7.65,-68.19 15.95,-9.86 37.61,13.52 37.61,13.52 0,0 -3.21,-19.5 8.65,-24.78 11.86,-5.29 30.35,-1.01 63.15,21.72 -0.95,-38.28 -0.13,-87.11 51.61,-154.61 51.74,-67.49 92.03,-87 135.11,-95.76 17.81,-63.42 28.15,-97.54 33.63,-135.48 0,0 -96.57,-50.59 -216.81,-206.07 -120.24,-155.49 -194.9,-291.65 -224.31,-370.46 -29.35,-78.82 -47.26,-128.47 -55.82,-136.93 -8.57,-8.51 -19.41,-23.94 -17.92,-30.69 1.5,-6.76 21.2,-2.13 22.7,-8.89 1.5,-6.75 -13.24,-33.34 -8.59,-41.54 4.65,-8.2 28.67,-4.53 30.55,-7.5 1.88,-2.96 -6.69,-28.52 -1.87,-35.01 4.81,-6.56 30.52,-2.54 35.44,-7.99 4.93,-5.45 -8.81,-33.27 -1.31,-40.62 7.5,-7.37 63.99,8.43 69.25,5.72 5.2,-2.71 8.02,-34.96 16.65,-36.35 8.62,-1.39 181.81,76.37 275.74,125.57 93.93,49.21 1317.01,300.11 1317.01,300.11z"/>
     <path class="fil2" d="M2139.73 1871.37c105.46,-114.65 88.93,-180.69 68.45,-285.96 -20.47,-105.28 1.48,-198.3 3.85,-289.37 2.37,-91.06 -5.71,-176.65 -28.76,-231.59 482.17,162.87 834.63,-2.51 959.21,-74.48 -619.37,-391.29 -1156.02,-135.26 -1156.02,-135.26 0,0 -225.77,-196.91 -626.23,-131.87 170.38,-140.98 372.94,-311.1 472.7,-695.38 -222.25,39.99 -730.61,293.63 -848.06,873.5 -26.74,40.14 -68.45,61.91 -87.04,204.73 -18.59,142.82 -49.32,279.61 -87.27,361.03 -37.94,81.43 -68.88,205.08 138.6,433.04 145,152.72 203.74,190.87 203.74,190.87m986.83 -219.27l0 0 0 0z"/>
     <path class="fil5" d="M1558.24 1381.61c-0.07,9.05 -7.77,20.99 -27.25,20.04 -19.47,-0.95 -26.91,-17.9 -22.36,-25.82 4.54,-7.92 49.77,-9.09 49.61,5.78z"/>
     <path class="fil5" d="M1890.08 1289.66c-62.29,28.73 -69.59,135.01 -28.77,180.44 40.81,45.43 122.15,51.25 164.2,10.7 42.06,-40.56 47.7,-131.95 -4.54,-176.24 -52.24,-44.28 -105.69,-26.56 -130.89,-14.91z"/>
     <path class="fil6" d="M1894.49 1296.21c-11.91,6.08 -34.97,41.5 -16.73,66.95 18.25,25.44 52.33,24.85 69.67,12.41 17.33,-12.44 23.65,-43.26 7.87,-65.19 -15.78,-21.93 -44.76,-22.39 -60.81,-14.17z"/>
     <path class="fil5" d="M1188.26 1203.09c-30.52,-25 -106.04,-33.39 -154.47,20.49 -48.43,53.89 -36.63,132.49 11.87,167.24 48.51,34.75 140.16,6.25 161.35,-39.34 21.25,-45.67 18.96,-117.5 -18.75,-148.39z"/>
     <path class="fil6" d="M1183.39 1217.46c-15.78,-11.36 -46.8,-10.55 -59.97,6.03 -13.17,16.57 -12.29,54.07 6.82,67.87 19.13,13.8 53.13,7.87 65,-9.05 11.87,-16.92 10.8,-48.57 -11.85,-64.85z"/>
     <path class="fil5" d="M1832.93 27.46c-33.12,127.57 -77.63,231.46 -128.45,318.61 -21.83,-21.78 -76.07,-26.96 -227.69,-4.25 -133.7,19.99 -270.85,120.24 -332.27,170.15 203.47,-308.59 524.09,-454.97 688.41,-484.51z"/>
     <path class="fil5" d="M3142.48 990.03c-102.41,59.18 -358.82,181.41 -714.64,132.58 60.24,-13.73 176.13,-47.04 266.04,-114.41 106.08,-79.56 133.43,-137.93 121.07,-172.95 104.63,33.73 214.7,83.5 327.52,154.78z"/>
     <path class="fil5 str3" d="M1071.54 832.75c0,0 -1.68,0.43 -4.52,1.64 -2.93,1.02 -6.89,2.94 -11.59,5.26 -4.63,2.52 -10.08,5.31 -15.51,9.03 -5.51,3.52 -11.17,7.59 -16.73,11.92 -2.75,2.13 -5.57,4.26 -8.26,6.31 -2.68,2.19 -5.22,4.42 -7.65,6.58 -4.9,4.32 -9.51,8.35 -13.15,12.15 -7.35,7.48 -12.11,12.58 -12.11,12.58 -1.48,1.6 -1.37,4.1 0.17,5.6 1.46,1.37 3.76,1.41 5.22,0.13l0.18 -0.15c0,0 5.22,-4.49 12.76,-11.39 1.94,-1.71 3.84,-3.76 6.09,-5.63 2.25,-1.87 4.62,-3.9 7.04,-5.99 2.43,-2.03 4.98,-4.26 7.46,-6.5 2.62,-2.11 5.24,-4.29 7.92,-6.41 5.22,-4.42 10.76,-8.41 15.83,-12.36 5,-4 9.93,-7.41 13.89,-10.71 4.18,-3 7.6,-5.65 9.99,-7.48 2.45,-1.83 3.79,-2.89 3.79,-2.89 0.44,-0.31 0.5,-0.98 0.19,-1.41 -0.16,-0.25 -0.56,-0.41 -1.01,-0.29z"/>
     <path class="fil7 str2" d="M1706.76 1620.98c0,0 -24.47,100.75 -81.95,208.91 -57.47,108.17 -111.78,166.47 -153.22,164.03 -41.44,-2.44 -107.67,-103.97 -126.74,-252.32 -19.01,-148.35 -16.7,-165.96 -16.7,-165.96 0,0 58.08,4.06 105.97,-19.78 47.89,-23.83 83.28,-56.72 149.77,-10.3 66.36,46.43 84.94,75.15 122.86,75.43z"/>
     <path class="fil8 str2" d="M1344.22 1736.63c23.51,-32.35 74.11,-82.23 160.36,-77.96 97.5,4.79 135.25,80.66 147.51,115.35 -8.15,18.05 -17.2,36.8 -27.28,55.84 -57.53,108.18 -111.78,166.47 -153.22,164.03 -41.44,-2.44 -107.67,-103.97 -126.74,-252.32 -0.24,-1.69 -0.39,-3.26 -0.63,-4.95z"/>
     <path class="fil5" d="M1760.04 1603.53c0,0 -0.8,0.48 -2.18,1.21 -1.31,0.79 -3.33,1.65 -5.72,2.76 -2.4,1.17 -5.26,2.18 -8.3,3.34 -3.14,0.91 -6.29,2.35 -9.73,2.9 -1.68,0.36 -3.35,0.73 -5.02,1.17 -1.6,0.49 -3.31,0.53 -4.86,0.75 -1.56,0.23 -3.14,0.31 -4.56,0.59 -1.42,0.33 -2.79,0.35 -4.11,0.35 -5.07,0.05 -8.52,0.46 -8.52,0.46l-0.65 0.07c-2.15,0.22 -3.67,2.15 -3.45,4.31 0.19,1.9 1.72,3.32 3.51,3.47 0,0 3.79,0.35 9.53,0.37 2.85,0.24 6.15,-0.48 9.7,-1.11 1.74,-0.37 3.57,-0.49 5.35,-1.13 1.79,-0.51 3.59,-1.08 5.37,-1.73 3.65,-1.03 6.87,-3.07 10.09,-4.45 1.56,-0.82 2.98,-1.82 4.34,-2.69 1.37,-0.86 2.67,-1.66 3.77,-2.49 2.27,-1.68 4.03,-3.18 5.23,-4.35 1.21,-1.11 1.8,-1.77 1.8,-1.77l0.05 -0.07c0.48,-0.57 0.4,-1.35 -0.18,-1.83 -0.36,-0.35 -1.03,-0.35 -1.47,-0.11z"/>
     <path class="fil5" d="M1272.84 1547.92c0,0 0.42,0.81 1.56,2.35 1.07,1.54 2.65,3.5 4.67,5.8 0.97,1.16 2.27,2.22 3.51,3.48 1.3,1.13 2.57,2.58 4.13,3.68 3.11,2.2 6.28,4.85 9.96,6.67 3.51,2.16 7.25,3.9 10.87,5.11 1.78,0.68 3.5,1.37 5.2,1.92 1.65,0.64 3.31,0.79 4.8,1.18 6.05,1.17 10.05,1.63 10.05,1.63 2.13,0.25 4.08,-1.33 4.32,-3.47 0.21,-1.87 -0.94,-3.54 -2.59,-4.17l-0.54 -0.21c0,0 -3.55,-1.23 -8.97,-2.67 -1.37,-0.39 -2.83,-0.57 -4.28,-1.29 -1.44,-0.65 -3.02,-1.15 -4.67,-1.77 -1.65,-0.63 -3.34,-1.12 -5,-1.88 -1.59,-0.83 -3.26,-1.65 -4.99,-2.41 -3.49,-1.37 -6.54,-3.5 -9.56,-5.25 -1.6,-0.82 -2.89,-1.89 -4.23,-2.74 -1.28,-0.93 -2.68,-1.72 -3.69,-2.61 -2.22,-1.76 -4.15,-3.15 -5.3,-4.22 -1.23,-1 -1.96,-1.72 -1.96,-1.72 -0.81,-0.84 -2.12,-0.84 -2.97,-0.03 -0.65,0.66 -0.76,1.59 -0.41,2.42l0.08 0.19z"/>
     <path class="fil9 str2" d="M2094.69 1570.98c47.37,-8.59 97.29,30.31 120.68,51.8 15.53,84.97 16.81,148.11 -75.64,248.64 -15.8,17.18 -30.67,32.54 -44.94,46.53 -143.7,-11.24 -152.88,-138.59 -136.92,-216.49 16.56,-80.99 72.08,-118.75 136.82,-130.48z"/>
     <path class="fil9 str2" d="M794.06 1508.5c29.67,-30.67 90.99,-64.57 159.39,-21.39 87.98,55.55 100.15,193.04 57.11,265.07 -32.27,54.04 -101.87,59.32 -134.63,58.59 -102.56,-140.94 -103.01,-234.56 -81.88,-302.27z"/>
     <path class="fil3" d="M1573.68 2166.09c-0.33,17.68 -70.57,64.37 -144.34,62.94 -73.76,-1.37 -129,-48.64 -128.39,-64.17 0.61,-15.52 72.1,-3.94 127.44,0.39 55.35,4.42 145.67,-19 145.29,0.85z"/>
     <path class="fil5 str3" d="M877.41 2372.58c0,0 3.2,-17.96 8.01,-44.87 2,-13.54 3.89,-29.52 6.13,-46.52 2.04,-17.05 3.64,-35.24 5.31,-53.37 1.27,-18.23 2.8,-36.41 3.78,-53.49 0.98,-17.07 1.68,-33.06 1.82,-46.75 0.14,-13.69 0.18,-25.11 -0.1,-33.08 -0.14,-7.97 -0.47,-12.56 -0.47,-12.56 -0.02,-0.79 -0.73,-1.39 -1.45,-1.31 -0.72,0.07 -1.26,0.59 -1.32,1.26 0,0 -0.47,4.54 -1.38,12.49 -0.91,7.95 -1.75,19.27 -3.09,32.87 -1.07,13.59 -2.44,29.44 -3.57,46.46 -1.12,17.03 -2.79,35.15 -4.2,53.27 -0.94,9.07 -1.81,18.08 -2.7,26.96 -0.89,8.87 -1.51,17.72 -2.51,26.15 -1.99,16.91 -3.83,32.61 -5.44,46.11 -3.87,27.08 -6.47,45.11 -6.47,45.11 -0.31,2.15 1.15,4.19 3.29,4.5 2.01,0.32 4.04,-1.14 4.35,-3.22z"/>
     <path class="fil5 str3" d="M1006.26 2517.35c0,0 -2.31,-1.35 -6.59,-3.3 -4.28,-1.87 -10.35,-4.63 -17.99,-7.17 -7.58,-2.61 -16.61,-5.27 -26.44,-7.39 -4.91,-0.96 -10.03,-2.09 -15.24,-2.76 -5.23,-0.87 -10.57,-1.51 -15.89,-1.97 -5.33,-0.59 -10.73,-0.57 -16.03,-0.76 -5.3,-0.33 -10.53,0.13 -15.54,0.17 -5.08,-0.01 -9.87,0.8 -14.51,1.2 -4.64,0.41 -8.91,1.17 -12.93,1.9 -3.95,0.73 -7.65,1.3 -10.79,2.15 -3.21,0.84 -5.97,1.58 -8.22,2.21 -4.55,1.25 -7.11,1.97 -7.11,1.97 -2.11,0.61 -3.28,2.78 -2.74,4.83 0.53,2 2.57,3.25 4.56,2.78l0.33 -0.03c0,0 2.52,-0.52 6.97,-1.5 2.19,-0.48 4.9,-1.08 7.99,-1.79 3.1,-0.64 6.68,-1.06 10.5,-1.72 3.82,-0.65 7.97,-1.32 12.49,-1.65 4.44,-0.39 9.12,-1.05 13.99,-1.15 4.86,-0.16 9.89,-0.67 15.04,-0.52 5.15,0.07 10.35,0.01 15.53,0.42 5.22,0.2 10.4,0.54 15.47,1.15 5.11,0.41 10.07,1.23 14.96,1.93 9.65,1.6 18.72,3.27 26.3,5.28 15.34,3.74 25.14,7.51 25.14,7.51 0.55,0.21 1.11,-0.04 1.32,-0.59 0.03,-0.39 -0.16,-0.98 -0.58,-1.2z"/>
     <path class="fil10" d="M1504.59 1658.7c97.5,4.79 135.25,80.65 147.51,115.35 -1.68,3.73 -3.46,7.54 -5.25,11.42 -17.28,-23.09 -64.74,-74.87 -142.82,-74.67 -85.86,0.18 -129.63,11.84 -156.85,47.28 -0.87,-5.4 -1.62,-10.87 -2.37,-16.41 -0.24,-1.7 -0.39,-3.33 -0.63,-4.96 23.57,-32.35 74.18,-82.29 160.43,-78.02z"/>
     <path class="fil4 str2" d="M1344.22 1736.63c23.51,-32.35 74.11,-82.23 160.36,-77.96 97.5,4.79 135.25,80.66 147.51,115.35 -8.15,18.05 -17.2,36.8 -27.28,55.84 -57.53,108.18 -111.78,166.47 -153.22,164.03 -41.44,-2.44 -107.67,-103.97 -126.74,-252.32 -0.24,-1.69 -0.39,-3.26 -0.63,-4.95z"/>
     <path class="fil3" d="M2427.85 1122.63c0,0 -219.82,-68.91 -278.47,-116.65 21.35,33.32 32.28,54.88 32.28,54.88 0,0 158.78,55.82 246.19,61.76z"/>
     <path class="fil5 str3" d="M2186.86 1062.78c0,0 -2.87,-6.85 -7.44,-16.96 -1.05,-2.53 -2.7,-5.21 -4.3,-8.02 -1.6,-2.81 -3.28,-5.81 -5.05,-8.94 -3.53,-6.25 -8.01,-12.14 -12.13,-18.46 -2.03,-3.17 -4.38,-6.1 -6.64,-8.98 -2.27,-2.88 -4.53,-5.76 -6.72,-8.44 -4.56,-5.35 -8.81,-10.28 -12.77,-14.24 -3.83,-4.11 -7.25,-7.26 -9.65,-9.47 -2.41,-2.27 -3.91,-3.37 -3.91,-3.37 -0.49,-0.35 -1.15,-0.28 -1.56,0.16 -0.29,0.36 -0.3,0.95 0,1.32 0,0 4.35,5.97 10.86,14.96 3.35,4.42 6.79,9.89 10.97,15.35 1.94,2.84 3.95,5.81 5.96,8.78 1.96,3.04 4.28,5.91 6.18,9.02 3.85,6.22 8.15,12.26 11.32,18.22 1.75,2.93 3.42,5.73 5,8.42 1.59,2.68 3.16,5.09 4.33,7.69 5.02,9.93 8.57,16.44 8.57,16.44 1.05,1.95 3.43,2.63 5.37,1.57 1.61,-1.02 2.32,-3.2 1.6,-5.04z"/>
     <path class="fil3" d="M1603.09 491.28c0,0 -197.21,174.93 -349.98,260.11 75.05,-22.41 107.07,-28.47 107.07,-28.47 0,0 201.71,-166.79 242.91,-231.64z"/>
     <path class="fil5 str3" d="M1833.28 2095.19c22.57,-11.51 45.13,-23.03 67.46,-35.11 22.4,-11.89 44.46,-24.55 66.2,-37.71 21.74,-13.22 42.75,-27.75 62.87,-43.31 20.04,-15.69 39.17,-32.6 57.49,-50.24 18.19,-17.81 35.87,-36.03 53.03,-54.74 17.17,-18.7 33.57,-38.39 47.56,-59.8 13.93,-21.42 25.43,-44.7 31.75,-69.65 6.59,-24.9 7.26,-51.06 4.83,-76.45 -2.36,-25.52 -7.45,-50.5 -12.26,-75.39 -4.94,-24.87 -8.18,-49.83 -9.26,-75.09 -2.45,-50.54 2.75,-101.07 7.42,-151.6 2.34,-25.27 4.26,-50.7 4.8,-76.18 0.54,-25.43 0.41,-50.97 -0.83,-76.41 -1.3,-25.44 -3.67,-50.89 -7.72,-76.11 -4.25,-25.2 -10.07,-50.31 -19.86,-74.29l-4.88 5.25 29.61 9.44 14.78 4.72 14.93 4.25 29.92 8.48 30.15 7.47c10.02,2.62 20.19,4.78 30.29,6.93 10.17,2.08 20.23,4.51 30.43,6.32l30.6 5.45c10.21,1.87 20.48,3.08 30.72,4.63l15.39 2.22 15.46 1.74c10.33,1.08 20.63,2.49 30.92,3.24l31.02 2.43 31.06 1.5c10.34,0.61 20.74,0.49 31.11,0.7l15.57 0.22 15.52 -0.3c20.75,-0.18 41.47,-1.27 62.11,-2.55l30.98 -2.52 30.91 -3.38 30.81 -4.28 30.65 -5.13 30.51 -5.91 30.37 -6.76 30.15 -7.58c9.99,-2.85 20.01,-5.51 29.93,-8.49 79.7,-24.07 156.74,-56.26 228.63,-97.77 1.87,-1.05 2.55,-3.49 1.44,-5.36 -0.32,-0.57 -0.83,-1.04 -1.32,-1.39 -21.45,-13.37 -43.06,-26.45 -65.08,-38.9 -11.03,-6.15 -22.01,-12.45 -33.21,-18.26 -11.15,-6.01 -22.35,-11.82 -33.65,-17.42 -22.51,-11.41 -45.52,-21.98 -68.57,-32.28 -23.21,-9.95 -46.53,-19.69 -70.28,-28.4 -94.65,-35.46 -193.3,-60.22 -293.57,-72.85 -100.21,-12.77 -201.98,-13.44 -302.39,-1.89 -50.17,5.77 -100.02,14.69 -149.1,26.69 -24.5,6.1 -48.85,12.91 -72.92,20.74 -24.05,7.9 -47.79,16.37 -71.1,26.96l4.27 0.56c-10.86,-9.02 -22.07,-16.94 -33.58,-24.63 -11.51,-7.63 -23.37,-14.76 -35.32,-21.55 -11.96,-6.85 -24.2,-13.15 -36.6,-19.24 -12.35,-6.09 -24.96,-11.69 -37.64,-17.09 -12.73,-5.33 -25.56,-10.31 -38.48,-14.96 -12.99,-4.57 -26.02,-9.01 -39.26,-12.89 -6.54,-2.12 -13.19,-3.89 -19.88,-5.66 -6.64,-1.78 -13.3,-3.69 -19.97,-5.19l-20.11 -4.71 -20.26 -4.17c-6.73,-1.44 -13.55,-2.4 -20.33,-3.63 -6.77,-1.17 -13.56,-2.34 -20.35,-3.17l-20.45 -2.77 -20.51 -2.1c-13.66,-1.46 -27.44,-2.13 -41.17,-3.06 -13.75,-0.33 -27.49,-1.26 -41.23,-1l-20.64 0.03 -20.63 0.69c-13.74,0.33 -27.46,1.51 -41.2,2.43 -13.76,0.85 -27.33,2.81 -41.04,4.13 -13.68,1.7 -27.23,3.86 -40.81,5.76l3.13 6.95c55.07,-45.5 109.95,-91.64 160.82,-142.2 12.77,-12.58 25.18,-25.52 37.44,-38.57 12.13,-13.17 24.09,-26.53 35.71,-40.19 23.22,-27.37 45.13,-55.8 65.57,-85.26 20.43,-29.46 39.44,-59.98 56.85,-91.32l12.84 -23.69 12.22 -23.95c7.8,-16.17 15.53,-32.34 22.71,-48.78 3.73,-8.17 7.04,-16.5 10.5,-24.77 3.51,-8.28 6.83,-16.61 10.01,-24.99 6.63,-16.65 12.5,-33.62 18.51,-50.54 5.53,-17.07 11.34,-34.04 16.26,-51.31 5.33,-17.11 9.77,-34.54 14.56,-51.8 0.58,-2.11 -0.63,-4.23 -2.73,-4.81 -0.6,-0.13 -1.2,-0.21 -1.72,-0.09l-0.06 0.01c-53.06,9.83 -104.27,26.87 -154.05,47 -49.7,20.32 -97.82,44.39 -144.21,71.44 -92.77,54.05 -178.58,120.21 -254,196.76 -37.68,38.27 -72.85,79.06 -104.75,122.36 -31.91,43.24 -60.87,88.76 -86.02,136.26 -50.7,94.87 -86.85,197.38 -108.15,302.83l0.59 -1.38c-7.74,11.48 -17.16,22.07 -25.97,33.39 -8.89,11.26 -17.03,23.31 -23.79,36.08 -13.78,25.5 -22.12,53.35 -28.54,81.28 -6.35,27.99 -9.81,56.47 -13.78,84.48 -4.03,28.09 -8.66,56.09 -13.7,84.01 -10.13,55.84 -22.48,111.31 -38.92,165.48 -8.29,27.05 -17.73,53.77 -29.32,79.37 -12.1,25.85 -22.05,53.41 -26.21,82.09 -4.3,28.63 -2.87,58.02 2.81,86.25 5.75,28.28 15.6,55.5 27.77,81.49 12.11,25.99 26.78,50.68 42.62,74.45 15.9,23.76 33.09,46.6 51.25,68.55 9.08,10.98 18.29,21.95 27.79,32.54 4.82,5.33 9.31,10.63 14.4,16l14.85 15.28 29.64 30.63c9.92,10.17 20.15,20.11 30.31,30.11 10.1,10.01 20.32,19.89 30.85,29.52 10.46,9.65 20.63,19.59 31.5,28.8 21.27,18.87 43.22,37.14 66.91,53.18 0.63,0.41 1.48,0.25 1.87,-0.39 0.4,-0.63 0.25,-1.41 -0.32,-1.89l-0.07 -0.05c-5.63,-4.12 -11.21,-8.58 -16.62,-13.13 -5.46,-4.54 -10.86,-9.08 -16.09,-13.91 -10.75,-9.22 -21.14,-18.81 -31.54,-28.53 -10.45,-9.52 -20.6,-19.46 -30.89,-29.26 -10.33,-9.73 -20.37,-19.68 -30.35,-29.77 -9.97,-10.03 -20.19,-19.91 -30.11,-30.06l-29.65 -30.65 -14.79 -15.35c-4.72,-5.01 -9.43,-10.48 -14.1,-15.69 -9.43,-10.54 -18.56,-21.39 -27.51,-32.37 -18.01,-21.83 -34.99,-44.5 -50.67,-68.02 -15.61,-23.53 -30.06,-47.91 -41.93,-73.46 -11.93,-25.49 -21.52,-52.13 -27.06,-79.65 -5.46,-27.46 -6.86,-55.79 -2.66,-83.43 4.07,-27.69 13.6,-54.2 25.65,-79.79 11.88,-26.09 21.41,-53.15 29.88,-80.41 16.65,-54.66 29.17,-110.35 39.42,-166.4 5.15,-28.06 9.65,-56.11 13.65,-84.4 3.89,-28.2 7.25,-56.34 13.39,-83.84 6.2,-27.44 14.27,-54.68 27.49,-79.26 6.47,-12.34 14.26,-23.96 22.91,-35 8.57,-11.1 18.04,-21.83 26.18,-33.94 0.29,-0.43 0.44,-0.84 0.59,-1.31l-0.01 -0.07c21.17,-104.71 57.07,-206.47 107.37,-300.7 24.98,-47.16 53.79,-92.33 85.46,-135.28 31.65,-43.01 66.61,-83.46 104.04,-121.5 74.94,-76.04 160.21,-141.74 252.35,-195.47 46.07,-26.83 93.9,-50.72 143.27,-70.95 49.32,-20.02 100.23,-36.9 152.44,-46.57l-4.51 -4.9c-4.73,17.19 -9.19,34.48 -14.46,51.52 -4.93,17.14 -10.68,34.03 -16.16,51.03 -5.96,16.78 -11.77,33.68 -18.42,50.2 -3.1,8.37 -6.43,16.63 -9.96,24.85 -3.46,8.21 -6.71,16.53 -10.44,24.63 -7.11,16.37 -14.79,32.46 -22.54,48.5l-12.17 23.81 -12.74 23.48c-17.29,31.13 -36.13,61.43 -56.46,90.69 -20.32,29.26 -42.06,57.54 -65.11,84.69 -11.55,13.58 -23.39,26.86 -35.46,39.96 -12.2,12.98 -24.55,25.85 -37.2,38.35 -50.57,50.27 -105.21,96.25 -160.35,141.69 -1.71,1.36 -1.92,3.89 -0.5,5.53 0.9,1.1 2.26,1.56 3.57,1.43l0.06 -0.01c13.52,-1.89 27.01,-4.04 40.55,-5.73 13.57,-1.3 27.09,-3.25 40.72,-4.09 13.61,-0.97 27.2,-2.14 40.81,-2.45l20.42 -0.74 20.44 -0c13.61,-0.25 27.29,0.69 40.89,0.97 13.61,0.94 27.24,1.55 40.77,3.03l20.39 2.11 20.25 2.79c6.74,0.84 13.51,1.94 20.22,3.18 6.72,1.24 13.47,2.15 20.13,3.59l20.06 4.13 19.91 4.67c6.68,1.51 13.2,3.36 19.77,5.15 6.57,1.78 13.15,3.57 19.68,5.62 13.11,3.83 26,8.22 38.85,12.74 12.85,4.59 25.55,9.58 38.13,14.79 12.53,5.34 24.96,10.9 37.23,16.93 12.21,6.04 24.37,12.28 36.19,19.02 11.81,6.74 23.53,13.75 34.83,21.27 11.3,7.52 22.51,15.44 32.73,23.99 1.23,1.06 2.89,1.23 4.27,0.56 22.57,-10.2 46.35,-18.8 70.17,-26.54 23.86,-7.75 48.03,-14.54 72.41,-20.56 48.75,-11.97 98.22,-20.84 148.13,-26.52 99.75,-11.48 200.85,-10.82 300.47,1.88 99.62,12.64 197.72,37.19 291.82,72.44 23.61,8.65 46.8,18.34 69.87,28.24 22.98,10.24 45.78,20.69 68.22,32.04 11.23,5.54 22.43,11.35 33.44,17.31 11.13,5.81 22.04,12.05 33.07,18.14 21.87,12.33 43.41,25.35 64.72,38.67l0.11 -6.75c-71.33,41.13 -147.87,73.13 -226.7,96.64 -9.85,2.98 -19.8,5.63 -29.74,8.41l-29.95 7.57 -30.17 6.74 -30.32 5.89 -30.47 5.04 -30.61 4.27 -30.71 3.35 -30.79 2.5c-20.57,1.28 -41.09,2.42 -61.7,2.57l-15.46 0.3 -15.45 -0.23c-10.3,-0.22 -20.57,-0.11 -30.85,-0.73l-30.85 -1.46 -30.82 -2.38c-10.29,-0.75 -20.46,-2.18 -30.71,-3.19l-15.32 -1.7 -15.32 -2.22c-10.18,-1.55 -20.45,-2.77 -30.52,-4.59l-30.4 -5.4c-10.13,-1.82 -20.19,-4.18 -30.29,-6.27 -10.09,-2.09 -20.13,-4.25 -30.15,-6.88l-30.01 -7.41 -29.72 -8.44 -14.87 -4.25 -14.71 -4.73 -29.41 -9.4c-2.11,-0.65 -4.3,0.5 -4.96,2.54 -0.3,0.89 -0.21,1.81 0.07,2.63l0 0.07c9.63,23 15.54,47.65 19.95,72.43 4.15,24.89 6.74,50.05 8.23,75.27 1.42,25.28 1.78,50.54 1.3,75.9 -0.43,25.27 -2.3,50.49 -4.56,75.82 -4.56,50.46 -9.65,101.36 -7.02,152.43 1.19,25.51 4.61,50.99 9.61,75.85 4.88,24.87 9.95,49.79 12.4,74.84 2.39,25.06 1.79,50.48 -4.54,74.76 -6.11,24.33 -17.26,47.19 -30.96,68.31 -13.76,21.13 -29.79,40.65 -46.96,59.28 -17.4,18.4 -34.87,36.73 -53.52,53.8 -18.65,17.06 -37.89,33.4 -58.13,48.51 -20.08,15.23 -41.02,29.29 -62.48,42.61 -21.39,13.45 -43.41,25.89 -65.25,38.67 -22,12.58 -44,25.23 -65.84,38 -0.75,0.41 -0.99,1.35 -0.52,2.03 0.48,0.87 1.36,1.11 2.05,0.78z"/>
     <path class="fil5 str3" d="M1186.11 781.85c0,0 10.7,-4.25 26.74,-10.68 3.98,-1.65 8.45,-3.09 13.01,-4.94 4.63,-1.79 9.46,-3.59 14.47,-5.55 5.09,-1.77 10.32,-3.55 15.67,-5.47 5.27,-1.98 10.68,-3.91 16.19,-5.52 5.49,-1.74 10.93,-3.41 16.29,-5.07 5.35,-1.8 10.76,-3.06 15.9,-4.5 5.2,-1.38 10.2,-2.74 14.94,-4.02 4.75,-1.33 9.25,-2.45 13.46,-3.2 16.78,-3.54 27.99,-6.05 27.99,-6.05l0.32 -0.1c2.13,-0.48 3.43,-2.59 2.95,-4.72 -0.47,-2.07 -2.44,-3.32 -4.46,-3.05 0,0 -11.48,1.81 -28.71,4.87 -4.35,0.7 -8.92,1.75 -13.72,3.1 -4.82,1.21 -9.97,2.52 -15.23,3.91 -5.27,1.33 -10.8,2.67 -16.15,4.67 -5.42,1.8 -10.97,3.61 -16.45,5.48 -5.56,1.75 -10.96,3.81 -16.35,5.87 -5.33,1.99 -10.58,4.17 -15.58,6.19 -4.99,2.22 -9.78,4.35 -14.32,6.39 -4.54,1.98 -8.81,4.12 -12.63,6.16 -3.89,2.04 -7.39,3.85 -10.52,5.55 -3.05,1.76 -5.72,3.35 -7.91,4.63 -4.42,2.56 -6.76,4.18 -6.75,4.25 -0.5,0.31 -0.62,0.98 -0.31,1.48 0.16,0.31 0.7,0.46 1.16,0.34z"/>
     <path class="fil3" d="M1936.31 2725.01c0,0 190.05,-47.52 147.21,-178.62 -43.35,77.49 -70.99,116.65 -147.21,178.62z"/>
     <path class="fil5 str3" d="M1693.2 2239.07c0,0 -1.02,1.03 -3.05,3.09 -2.04,1.99 -4.97,5.05 -8.71,9.13 -7.63,8.03 -18.41,20.07 -31.5,36.06 -13.24,15.79 -28.36,35.81 -44.77,59.46 -16.34,23.64 -33.89,51.03 -51.07,82.02 -17.18,30.99 -34.34,65.47 -48.49,103.69 -3.24,9.71 -6.48,19.48 -9.83,29.4 -3.15,9.96 -5.96,20.01 -8.95,30.29 -5.78,20.46 -11.45,41.44 -16.67,62.97 -5.23,21.47 -10.13,43.49 -14.14,65.96 -3.79,22.57 -7.43,45.4 -6.78,69.51 0.42,6.09 0.7,12.15 3.56,18.99 3.42,9.11 14.93,10.13 21.35,7.9 3.39,-1.07 6.39,-2.76 8.65,-3.78 1.06,-0.63 2.38,-0.63 1.04,-0.7 -0.13,-0.11 -0.94,-0.17 -1.24,-0.53 -0.35,-0.23 -0.56,-0.34 -0.65,-0.67 -0.68,-1.45 -0.09,-0.12 -0.17,-0.31l0.19 0.51c0.17,0.39 0.27,0.7 0.21,0.77l0.44 3.2 0.5 4.24 0.88 8.76c0.67,5.95 1.47,11.94 3.07,18.13 0.78,3.09 1.89,6.22 3.39,9.36 1.82,3.06 3.7,6.56 7.94,8.78l0.71 0.46c0.21,0.11 1.17,0.54 0.96,0.43l1.03 0.36c0.68,0.26 1.3,0.53 2.44,0.74 2.23,0.57 4.02,0.66 5.87,0.67 3.63,-0.03 6.98,-0.77 10.11,-1.61 6.09,-1.73 11.7,-4.35 15.81,-4.69 1.96,-0.14 2.66,0.19 3.69,1.28 0.89,0.9 2.11,3.35 3.02,5.77 1.89,5.02 3,10.79 5.8,17.06 0.75,1.57 1.57,3.2 2.93,4.91 0.75,0.85 1.35,1.66 2.49,2.46l0.78 0.58c0.64,0.33 -0.26,0.03 1.54,0.84l1.02 0.35c0.21,0.04 0.27,0.1 0.55,0.21l1.27 0.2c0.87,0.11 1.73,0.16 2.58,0.15 1.17,-0.19 2.33,-0.44 3.35,-0.74 1.91,-0.65 3.54,-1.48 4.97,-2.34 5.59,-3.41 10.18,-7.63 14.13,-9.61 0.81,-0.48 1.68,-0.44 0.87,-0.49 -0.07,-0.06 -0.46,-0.01 -0.61,-0.2l-0.58 -0.6 0.37 0.43c0.79,0.71 0.46,0.68 0.46,0.68 0.65,1.2 1.26,3.97 1.73,6.7 0.49,2.85 0.93,5.98 2.13,9.43 1.13,3.32 3.73,7.63 8.16,9.61 1.44,0.58 0.68,0.27 1.16,0.42l0.54 0.15c0.47,0.08 0.48,0.21 1.28,0.33 1.34,0.2 3.07,0.35 3.97,0.12 2.22,-0.22 4.07,-0.86 5.71,-1.56 3.28,-1.46 5.89,-3.17 8.3,-4.67 2.41,-1.57 4.77,-2.99 6.61,-3.71 0.89,-0.34 1.6,-0.41 1.74,-0.36l0.06 -0.01c-0.2,-0.04 0.54,0.15 -0.41,-0.21l0.97 0.42c0.76,0.32 0.24,0.37 0.5,0.42 2.83,2.61 5.62,8.02 8.63,13.06 1.57,2.55 3.16,5.23 5.95,8.05 1.45,1.31 3.33,2.97 6.73,3.35 0.53,0.02 1.91,-0.05 2.74,-0.27 0.71,-0.21 1.08,-0.37 1.59,-0.56 0.96,-0.35 1.71,-0.76 2.46,-1.1 5.75,-3.16 10.15,-6.56 14.89,-9.95 4.59,-3.44 9.13,-6.8 13.67,-10.23 18.08,-13.51 36.16,-26.49 55.37,-36.08 19.76,-9.98 39.21,-19.07 57.34,-30.74 9.13,-5.61 18.35,-10.82 27.07,-16.59 8.49,-6 16.93,-11.88 25.24,-17.73 8.23,-5.91 16.65,-11.39 24.41,-17.45 7.69,-6.19 15.18,-12.29 22.61,-18.26 14.68,-12.04 29.63,-23.25 42.39,-35.3 26.47,-23.21 49.35,-46.71 68.49,-68.05 18.91,-21.72 34.67,-41.27 45.97,-58.66 2.93,-4.26 5.63,-8.29 8.21,-12.13 2.36,-3.94 4.56,-7.65 6.65,-11.1 4.12,-6.89 7.56,-12.78 9.95,-17.78 4.94,-9.88 7.56,-15.16 7.56,-15.16 0.23,-0.42 0.04,-0.93 -0.37,-1.15 -0.42,-0.23 -0.87,-0.05 -1.16,0.31l-0.05 0.07c0,0 -3.06,4.99 -8.77,14.42 -2.69,4.76 -6.53,10.36 -11.08,16.91 -2.24,3.26 -4.59,6.8 -7.18,10.63 -2.73,3.65 -5.63,7.5 -8.71,11.65 -3.08,4.07 -6.27,8.43 -9.78,12.87 -3.59,4.32 -7.35,8.93 -11.28,13.68 -7.52,9.74 -16.76,19.46 -26.09,30.18 -19.67,20.73 -41.67,43.75 -68.34,66.84 -12.89,12.06 -27.43,22.84 -42.18,34.82 -7.39,5.9 -14.89,11.94 -22.5,18.05 -7.71,5.99 -16.07,11.32 -24.18,17.16 -8.26,5.72 -16.57,11.58 -25.01,17.45 -8.59,5.63 -17.65,10.69 -26.58,16.15 -17.58,11.28 -37.42,20.48 -57,30.3 -20.28,10.04 -38.72,23.32 -57,36.78 -9.03,6.59 -18.35,14.13 -27.27,19.19 -0.5,0.25 -1.07,0.51 -1.44,0.68l-0.44 0.18c0.18,-0.15 0.85,-0.02 0.65,0.06 0.49,0.22 -0.12,0.02 -0.71,-0.58 -1.31,-1.26 -2.8,-3.55 -4.15,-5.86 -2.98,-4.72 -5.03,-10.13 -10.66,-15.57 -0.94,-0.76 -2.49,-1.79 -3.04,-2l-0.96 -0.44c-1.31,-0.52 -0.96,-0.29 -1.5,-0.44l-1 -0.17c-2.75,-0.39 -4.93,0.23 -6.71,0.87 -3.55,1.34 -6.07,3.13 -8.63,4.63 -4.69,3.24 -9.8,5.47 -11.09,4.42 -0.97,-0.5 -1.79,-1.47 -2.59,-3.57 -0.74,-2.11 -1.15,-4.77 -1.64,-7.7 -0.56,-2.98 -0.8,-6.06 -2.86,-10.15 -0.73,-1.31 -1.78,-2.59 -2.14,-2.82l-0.36 -0.43c-1.02,-0.95 -1,-0.69 -1.56,-1.09 -0.83,-0.45 -1.81,-0.95 -2.61,-1.06 -0.8,-0.11 -1.66,-0.17 -2.52,-0.15 -0.78,0.02 -1.29,0.2 -1.94,0.33 -1.35,0.27 -2.1,0.74 -3.05,1.09 -6.45,3.43 -10.47,7.4 -15.02,9.97 -1.05,0.63 -2.06,1.06 -2.95,1.41 -0.39,0.11 -0.72,0.15 -0.97,0.23 0.13,-0.07 0.26,-0.02 0.39,0.03 0.07,0.06 0.15,0.11 0.16,0.18 -0.07,0.01 -0.34,-0.09 -0.48,-0.15 -0.52,0.06 -1.65,-1.29 -2.67,-3.56 -2.03,-4.49 -3.22,-10.38 -5.41,-16.37 -1.23,-3.05 -2.26,-6.11 -5.39,-9.63 -0.87,-0.9 -2.1,-1.97 -2.52,-2.19l-0.93 -0.63c-1.25,-0.73 -0.82,-0.38 -1.31,-0.66l-0.82 -0.31c-2.27,-0.89 -4.57,-0.93 -6.54,-0.8 -7.61,0.91 -12.75,3.67 -17.94,5.04 -2.56,0.73 -4.96,1.17 -7.19,1.26 -1.13,-0.02 -2.19,-0.12 -2.85,-0.25 -0.27,0.03 -1.02,-0.23 -1.7,-0.49l-1.03 -0.35c-0.54,-0.21 0.13,0.05 0,0l-0.21 -0.18c-2.43,-1.15 -4.85,-6.31 -6.09,-11.41 -1.39,-5.22 -2.15,-10.83 -2.79,-16.56l-0.94 -8.7 -0.52 -4.5c-0.22,-1.56 -0.37,-3 -1.01,-5.44 -0.13,-0.65 -0.29,-1.03 -0.39,-1.28l-0.19 -0.51c-0.25,-0.5 0.31,0.43 -0.65,-1.26 -0.61,-0.85 -1.21,-1.59 -2.14,-2.29 -0.99,-0.62 -2.37,-1.28 -3.23,-1.32 -4.25,-0.3 -5.77,1.04 -7.29,1.59 -2.96,1.42 -5.07,2.63 -7.25,3.3 -1.97,0.73 -4.2,0.69 -5.36,0.41 -0.13,0.08 -0.95,-0.3 -1.57,-0.57l-0.96 -0.43c0.76,0.39 0.2,0.04 0.41,0.16 -0.15,-0.11 -0.67,-0.73 -1.02,-1.68 -1.71,-3.87 -2.29,-9.68 -2.64,-15.06 -0.67,-22.26 2.77,-45.13 6.48,-67.23 3.83,-22.19 8.63,-44 13.8,-65.33 5.17,-21.32 10.71,-42.22 16.44,-62.61 2.87,-10.14 5.67,-20.32 8.76,-30.15 3.24,-9.77 6.43,-19.41 9.55,-28.9 13.81,-37.65 30.68,-71.78 47.56,-102.48 16.95,-30.7 34.19,-57.93 50.35,-81.42 15.94,-23.67 30.67,-43.71 42.78,-60.25 12.18,-16.48 22.1,-29.18 28.81,-37.91 6.77,-8.6 10.46,-13.27 10.46,-13.27 0.41,-0.51 0.34,-1.23 -0.17,-1.63 -0.39,-0.69 -1.05,-0.63 -1.47,-0.25z"/>
    </g>
   </g>
   <path class="fil11" d="M2474.46 2116.92l465.52 538.49 480.39 0 0 -2667.12 -3415.37 0 0 2357.28 694.96 0c196.69,227.3 487.28,371.1 811.45,371.1 422.69,0 788.27,-244.48 963.06,-599.75z"/>
  </g>
 </g>
</svg>
